
<svg width="27" height="34"  viewBox="0 0 27 34" fill="none" xmlns="http://www.w3.org/2000/svg">
<path d="M18.0155 34C15.4939 33.9982 13.0006 33.4973 10.6967 32.5296C8.3928 31.5618 6.3294 30.1488 4.6397 28.3817C2.93723 26.6126 1.65274 24.5219 0.871452 22.2483C0.0901656 19.9747 -0.170054 17.5703 0.108058 15.1946C0.556425 11.4973 2.26493 8.03752 4.97636 5.33622C7.68779 2.63493 11.2554 0.838302 15.142 0.21683C17.6545 -0.149539 20.2186 -0.0509054 22.6912 0.507234C23.3387 0.664277 23.9299 0.981802 24.4038 1.42695C24.8776 1.8721 25.2169 2.4287 25.3864 3.03916C25.556 3.64962 25.5496 4.29176 25.3681 4.89914C25.1865 5.50651 24.8364 6.05706 24.3538 6.4938C17.5114 12.3954 18.1056 21.5721 25.5648 26.9071C26.0922 27.2978 26.499 27.8149 26.7429 28.4045C26.9868 28.9941 27.0589 29.6346 26.9517 30.2594C26.8445 30.8842 26.5618 31.4705 26.1332 31.9572C25.7045 32.4439 25.1455 32.8132 24.5144 33.0268C22.4163 33.6739 20.2227 34.0024 18.0155 34ZM18.1296 2.83471C17.2871 2.8328 16.4457 2.89295 15.6132 3.01462C12.3773 3.53128 9.40671 5.02626 7.14862 7.27454C4.89053 9.52281 3.46712 12.4027 3.09264 15.4807C2.85856 17.464 3.07428 19.4717 3.72548 21.3702C4.37667 23.2687 5.44842 25.0147 6.8695 26.492C8.94976 28.5881 11.6296 30.0692 14.5841 30.7557C17.5385 31.4422 20.6404 31.3045 23.5135 30.3593C23.6374 30.3155 23.7468 30.2416 23.8306 30.145C23.9144 30.0485 23.9697 29.9327 23.9909 29.8094C24.0121 29.6862 23.9984 29.5598 23.9512 29.4432C23.904 29.3266 23.8249 29.2238 23.7221 29.1453C14.8254 22.8017 14.1186 11.4576 22.2996 4.42698C22.3935 4.34469 22.4612 4.23932 22.4951 4.1227C22.529 4.00609 22.5278 3.88285 22.4917 3.76684C22.4605 3.64371 22.3942 3.53098 22.3001 3.44085C22.2059 3.35071 22.0874 3.28659 21.9575 3.25544C20.7041 2.97004 19.4188 2.82877 18.1296 2.83471Z" fill="white"/>
</svg>
