<svg width="39" height="39" viewBox="0 0 39 39" fill="none" xmlns="http://www.w3.org/2000/svg">
<path d="M37.375 17.875H30.745C30.6184 16.9797 30.3843 16.1029 30.0479 15.2636L35.7793 11.9421C35.9708 11.839 36.1397 11.6986 36.2759 11.529C36.4122 11.3594 36.513 11.1642 36.5724 10.955C36.6318 10.7457 36.6486 10.5267 36.6218 10.3108C36.595 10.0949 36.5251 9.88665 36.4163 9.6983C36.3075 9.50995 36.1619 9.34536 35.9883 9.21429C35.8147 9.08322 35.6166 8.98834 35.4056 8.93527C35.1947 8.8822 34.9752 8.87203 34.7603 8.90535C34.5453 8.93867 34.3392 9.01481 34.1543 9.12925L28.418 12.4556C27.8696 11.7629 27.2431 11.1358 26.5509 10.5869L29.8756 4.849C30.0758 4.47696 30.1233 4.04157 30.0079 3.63514C29.8925 3.22872 29.6234 2.8832 29.2575 2.67186C28.8917 2.46052 28.4579 2.39997 28.0482 2.50304C27.6385 2.60611 27.285 2.86471 27.0627 3.224L23.7364 8.95212C22.8972 8.6153 22.0204 8.38123 21.125 8.255V1.625C21.125 1.19402 20.9538 0.780698 20.649 0.475951C20.3443 0.171205 19.931 0 19.5 0C19.069 0 18.6557 0.171205 18.351 0.475951C18.0462 0.780698 17.875 1.19402 17.875 1.625V8.255C16.9796 8.38123 16.1028 8.6153 15.2636 8.95212L11.9421 3.22075C11.7198 2.86146 11.3664 2.60286 10.9566 2.49979C10.5469 2.39672 10.1132 2.45727 9.74734 2.66861C9.3815 2.87995 9.11237 3.22547 8.99698 3.63189C8.8816 4.03832 8.92904 4.47371 9.12925 4.84575L12.454 10.5869C11.7618 11.1358 11.1352 11.7629 10.5869 12.4556L4.85063 9.12925C4.66564 9.01481 4.45956 8.93867 4.24461 8.90535C4.02965 8.87203 3.81019 8.8822 3.59924 8.93527C3.38829 8.98834 3.19014 9.08322 3.01654 9.21429C2.84294 9.34536 2.69742 9.50995 2.58861 9.6983C2.4798 9.88665 2.40991 10.0949 2.38309 10.3108C2.35626 10.5267 2.37305 10.7457 2.43246 10.955C2.49187 11.1642 2.59268 11.3594 2.72893 11.529C2.86517 11.6986 3.03408 11.839 3.22563 11.9421L8.95212 15.2636C8.61566 16.1029 8.3816 16.9797 8.255 17.875H1.625C1.19402 17.875 0.780698 18.0462 0.475951 18.351C0.171205 18.6557 0 19.069 0 19.5C0 19.931 0.171205 20.3443 0.475951 20.649C0.780698 20.9538 1.19402 21.125 1.625 21.125H8.255C8.3816 22.0203 8.61566 22.8971 8.95212 23.7364L3.22075 27.0579C3.0292 27.161 2.8603 27.3014 2.72405 27.471C2.58781 27.6406 2.48699 27.8358 2.42759 28.045C2.36818 28.2543 2.35139 28.4733 2.37821 28.6892C2.40503 28.9051 2.47492 29.1133 2.58373 29.3017C2.69254 29.4901 2.83806 29.6546 3.01166 29.7857C3.18527 29.9168 3.38341 30.0117 3.59437 30.0647C3.80532 30.1178 4.02477 30.128 4.23973 30.0947C4.45469 30.0613 4.66077 29.9852 4.84575 29.8708L10.582 26.5444C11.1304 27.2371 11.7569 27.8642 12.4491 28.4131L9.12925 34.151C8.92904 34.523 8.8816 34.9584 8.99698 35.3649C9.11237 35.7713 9.3815 36.1168 9.74734 36.3281C10.1132 36.5395 10.5469 36.6 10.9566 36.497C11.3664 36.3939 11.7198 36.1353 11.9421 35.776L15.2636 30.0446C16.1029 30.3819 16.9796 30.617 17.875 30.745V37.375C17.875 37.806 18.0462 38.2193 18.351 38.524C18.6557 38.8288 19.069 39 19.5 39C19.931 39 20.3443 38.8288 20.649 38.524C20.9538 38.2193 21.125 37.806 21.125 37.375V30.745C22.0202 30.618 22.897 30.384 23.7364 30.0479L27.0579 35.7793C27.2802 36.1385 27.6336 36.3971 28.0434 36.5002C28.4531 36.6033 28.8868 36.5427 29.2527 36.3314C29.6185 36.12 29.8876 35.7745 30.003 35.3681C30.1184 34.9617 30.071 34.5263 29.8708 34.1543L26.546 28.4164C27.2382 27.8674 27.8648 27.2403 28.4131 26.5476L34.1494 29.874C34.3344 29.9884 34.5404 30.0646 34.7554 30.0979C34.9704 30.1312 35.1898 30.121 35.4008 30.068C35.6117 30.0149 35.8099 29.92 35.9835 29.789C36.1571 29.6579 36.3026 29.4933 36.4114 29.305C36.5202 29.1166 36.5901 28.9083 36.6169 28.6925C36.6437 28.4766 36.6269 28.2575 36.5675 28.0483C36.5081 27.839 36.4073 27.6438 36.2711 27.4743C36.1348 27.3047 35.9659 27.1642 35.7744 27.0611L30.043 23.7396C30.3814 22.8995 30.6171 22.0216 30.745 21.125H37.375C37.806 21.125 38.2193 20.9538 38.524 20.649C38.8288 20.3443 39 19.931 39 19.5C39 19.069 38.8288 18.6557 38.524 18.351C38.2193 18.0462 37.806 17.875 37.375 17.875ZM19.5 27.625C8.762 27.2838 8.76525 11.7146 19.5 11.375C30.238 11.7163 30.2348 27.2854 19.5 27.625Z" fill="white"/>
</svg>
